<svg id="Lager_1" data-name="Lager 1" xmlns="http://www.w3.org/2000/svg" viewBox="0 0 379.84 109.13"><defs><style>.cls-1,.cls-2{fill:#1d1d1b;}.cls-1{fill-rule:evenodd;}.cls-3{fill:none;}</style></defs><title>Region Stockholm_svart_frizon</title><path class="cls-1" d="M91.59,72.43H80.28a13.48,13.48,0,0,1-13.47-13.5V26.3H61.74c0,10.89,0,21.18,0,32.63A18.52,18.52,0,0,0,80.28,77.46c3.72,0,8,.05,11.31,0h0v-5Z"/><path class="cls-1" d="M91.59,64.2H80.23A5.25,5.25,0,0,1,75,58.93V26.3H70V58.93a10.29,10.29,0,0,0,10.3,10.29H91.59v-5Z"/><path class="cls-1" d="M28.78,72.43H40.1a13.47,13.47,0,0,0,13.46-13.5V26.3h5V58.93A18.52,18.52,0,0,1,40.05,77.46c-3.68,0-8,.05-11.27,0h0v-5Z"/><path class="cls-1" d="M28.78,64.2H40.1a5.26,5.26,0,0,0,5.26-5.27V26.3h5c0,6.05,0,26.25,0,32.63A10.3,10.3,0,0,1,40.1,69.22H28.78v-5Z"/><path class="cls-2" d="M114.25,77.48l-1.67-4.71c-1-2.65-1.5-3.43-3.38-3.43H108v8.14h-4.83V57.32h7.48c3.87,0,7.72.9,7.72,5.23a4.66,4.66,0,0,1-4,4.94v.06c1.47.31,1.88,1.64,2.57,3.49l2.46,6.44Zm-4.88-16.61H108v4.91h1.38c1.85,0,4.08-.14,4.08-2.51C113.45,61.16,111.42,60.87,109.37,60.87Z"/><path class="cls-2" d="M124.51,71.39c.23,2.19,1.88,3.23,4.36,3.23a9.81,9.81,0,0,0,4.74-1.3v3.47a12.77,12.77,0,0,1-5.37,1c-4.94,0-8.35-2.89-8.35-7.83,0-4.71,3-7.86,7.6-7.86,5.43,0,7.39,3.73,7.39,8.29v1Zm3.09-6.13c-2,0-3,1.45-3.12,3.3h6.1C130.52,66.77,129.71,65.26,127.6,65.26Z"/><path class="cls-2" d="M143.87,83.89a15.22,15.22,0,0,1-5.49-1l.29-3.78a10.38,10.38,0,0,0,4.77,1.27c3.32,0,4.56-1.88,4.56-4.59V75h-.06a5.67,5.67,0,0,1-4.88,2.48c-4.25,0-6.44-3.26-6.44-7.54,0-4.13,2-7.8,6.58-7.8A5.56,5.56,0,0,1,148.11,65h.06V62.49h4.31V75.83C152.48,81.15,150,83.89,143.87,83.89Zm.75-18.14c-2.22,0-3.15,2-3.15,4.14s1.24,4,3.06,4c2.08,0,3.38-1.79,3.38-4.16C147.91,67.72,146.93,65.75,144.62,65.75Z"/><path class="cls-2" d="M156.09,60V56.17h4.68V60Zm0,17.53v-15h4.68v15Z"/><path class="cls-2" d="M171.63,77.83c-4.94,0-8.35-3.12-8.35-7.8,0-5,3.61-7.89,8.35-7.89S180,65.06,180,70C180,74.71,176.6,77.83,171.63,77.83Zm0-12.28c-2.45,0-3.49,2-3.49,4.31s.86,4.59,3.49,4.59,3.55-2.25,3.55-4.59S174.09,65.55,171.63,65.55Z"/><path class="cls-2" d="M193,77.48V69.94c0-2.42-.61-4-2.46-4-2.39,0-3.29,2.08-3.29,4.79v6.73h-4.68v-15h4.31V65h.05a5.64,5.64,0,0,1,5.26-2.83c3.87,0,5.46,2.75,5.46,6v9.39Z"/><path class="cls-2" d="M213.44,77.83a19.69,19.69,0,0,1-5.69-.84l.43-4.13a10.94,10.94,0,0,0,5.14,1.3c1.65,0,3.44-.52,3.44-2.22,0-3.79-9.25-1.71-9.25-8.78,0-4.71,4.25-6.19,8.09-6.19a16.36,16.36,0,0,1,5,.76l-.35,3.81a10.54,10.54,0,0,0-4.33-.9c-1.36,0-3.44.32-3.44,2.25,0,3.36,9.27,1.45,9.27,8.53C221.78,76.33,217.74,77.83,213.44,77.83Z"/><path class="cls-2" d="M230.77,77.83c-4,0-5.34-2-5.34-5.32v-6.7h-2.92V62.49h3V59.28l4.62-1.44v4.65h3.55v3.32h-3.55v6.1c0,1.59.38,2.63,2,2.63a5.94,5.94,0,0,0,1.65-.26l.17,3.23A16.12,16.12,0,0,1,230.77,77.83Z"/><path class="cls-2" d="M243.29,77.83c-4.94,0-8.35-3.12-8.35-7.8,0-5,3.61-7.89,8.35-7.89s8.37,2.92,8.37,7.89C251.66,74.71,248.25,77.83,243.29,77.83Zm0-12.28c-2.46,0-3.5,2-3.5,4.31s.87,4.59,3.5,4.59,3.55-2.25,3.55-4.59S245.74,65.55,243.29,65.55Z"/><path class="cls-2" d="M261.6,77.83c-4.94,0-8.17-3.06-8.17-7.86s3.26-7.83,8.11-7.83a10.22,10.22,0,0,1,4,.73l-.35,3.49a5.76,5.76,0,0,0-2.94-.72c-2.31,0-4,1.7-4,4.39a4.05,4.05,0,0,0,4.16,4.3,7.29,7.29,0,0,0,3.12-.69l.14,3.58A13.11,13.11,0,0,1,261.6,77.83Z"/><path class="cls-2" d="M277.14,77.48l-4.47-7.36h-.06v7.36h-4.68V55.82h4.68V68.67h.06l4.45-6.18h5.22L277,69.31l5.89,8.17Z"/><path class="cls-2" d="M294.91,77.48V69.94c0-2.42-.61-4-2.45-4-2.4,0-3.3,2.08-3.3,4.79v6.73h-4.68V55.82h4.68v8.84h.06a5.82,5.82,0,0,1,4.88-2.52c3.87,0,5.46,2.75,5.46,6v9.39Z"/><path class="cls-2" d="M310.23,77.83c-4.94,0-8.35-3.12-8.35-7.8,0-5,3.61-7.89,8.35-7.89s8.38,2.92,8.38,7.89C318.61,74.71,315.2,77.83,310.23,77.83Zm0-12.28c-2.45,0-3.49,2-3.49,4.31s.86,4.59,3.49,4.59,3.55-2.25,3.55-4.59S312.69,65.55,310.23,65.55Z"/><path class="cls-2" d="M320.88,77.48V55.82h4.68V77.48Z"/><path class="cls-2" d="M348.56,77.48v-8.4c0-1.59-.37-3.12-2.13-3.12-2.14,0-2.92,2.11-2.92,4.82v6.7h-4.68v-8.4c0-1.59-.37-3.12-2.14-3.12-2.13,0-2.91,2.11-2.91,4.82v6.7H329.1v-15h4.3V65h.06a5.52,5.52,0,0,1,5.05-2.86,4.63,4.63,0,0,1,4.6,2.81,5.59,5.59,0,0,1,5.05-2.81c4.07,0,5.08,2.49,5.08,6.27v9.07Z"/><rect class="cls-3" width="379.84" height="109.13"/></svg>