<?xml version="1.0" encoding="utf-8"?>
<!-- Generator: Adobe Illustrator 22.1.0, SVG Export Plug-In . SVG Version: 6.00 Build 0)  -->
<svg version="1.1" id="Lager_1" width="300px" height="53px" xmlns="http://www.w3.org/2000/svg" xmlns:xlink="http://www.w3.org/1999/xlink" x="0px" y="0px"
	 viewBox="0 0 293.3 53" style="enable-background:new 0 0 293.3 53;" xml:space="preserve">
<style type="text/css">
	.st0{fill-rule:evenodd;clip-rule:evenodd;fill:#0076BA;}
	.st1{fill:#1A161A;}
</style>
<g>
	<g>
		<g>
			<path class="st0" d="M56.5,41.7c-2.2,0-7.8,0-10.2,0c-6.7,0-12.1-5.4-12.1-12.1c0-7.5,0-22.2,0-29.4l0,0h-4.6l0,0
				c0,9.8,0,19.1,0,29.4c0,9.2,7.5,16.7,16.7,16.7c3.4,0,7.2,0,10.2,0l0,0V41.7L56.5,41.7L56.5,41.7z"/>
			<path class="st0" d="M56.5,34.3c-0.9,0-9.3,0-10.2,0c-2.6,0-4.7-2.1-4.7-4.7c0-2.9,0-26.6,0-29.4l0,0h-4.5l0,0
				c0,5.4,0,23.6,0,29.4c0,5.1,4.1,9.3,9.3,9.3c1.8,0,8.5,0,10.2,0l0,0V34.3L56.5,34.3L56.5,34.3z"/>
			<path class="st0" d="M0,41.7c2.2,0,7.8,0,10.2,0c6.7,0,12.1-5.4,12.1-12.1c0-7.5,0-22.2,0-29.4l0,0h4.5l0,0c0,9.8,0,19.1,0,29.4
				c0,9.2-7.4,16.7-16.7,16.7c-3.3,0-7.2,0-10.1,0l0,0V41.7L0,41.7L0,41.7z"/>
			<path class="st0" d="M0,34.3c0.9,0,9.3,0,10.2,0c2.6,0,4.7-2.1,4.7-4.7c0-2.9,0-26.6,0-29.4l0,0h4.5l0,0c0,5.4,0,23.6,0,29.4
				c0,5.1-4.2,9.3-9.3,9.3c-1.8,0-8.5,0-10.2,0l0,0V34.3L0,34.3L0,34.3z"/>
		</g>
	</g>
	<g>
		<path class="st1" d="M76.9,46.2L75.4,42c-0.9-2.4-1.4-3.1-3-3.1h-1.1v7.3h-4.3V28.1h6.7c3.5,0,6.9,0.8,6.9,4.7
			c0,2.3-1.2,4-3.6,4.4v0.1c1.3,0.3,1.7,1.5,2.3,3.1l2.2,5.8H76.9z M72.5,31.3h-1.2v4.4h1.2c1.7,0,3.7-0.1,3.7-2.3
			C76.2,31.5,74.4,31.3,72.5,31.3z"/>
		<path class="st1" d="M86.1,40.7c0.2,2,1.7,2.9,3.9,2.9c1.4,0,2.9-0.4,4.3-1.2v3.1c-1.4,0.6-3,0.9-4.8,0.9c-4.4,0-7.5-2.6-7.5-7
			c0-4.2,2.7-7.1,6.8-7.1c4.9,0,6.7,3.4,6.7,7.5c0,0,0,0.8,0,0.9H86.1z M88.9,35.2c-1.8,0-2.7,1.3-2.8,3h5.5
			C91.5,36.6,90.8,35.2,88.9,35.2z"/>
		<path class="st1" d="M103.5,52c-1.9,0-3.6-0.4-4.9-0.9l0.3-3.4c1.3,0.6,2.7,1.1,4.3,1.1c3,0,4.1-1.7,4.1-4.1c0,0,0-0.6,0-0.7h-0.1
			c-0.9,1.4-2.5,2.2-4.4,2.2c-3.8,0-5.8-2.9-5.8-6.8c0-3.7,1.8-7,5.9-7c1.9,0,3.4,0.9,4.4,2.5h0.1v-2.2h3.9v12
			C111.3,49.5,109.1,52,103.5,52z M104.2,35.7c-2,0-2.8,1.8-2.8,3.7c0,2,1.1,3.6,2.8,3.6c1.9,0,3-1.6,3-3.7
			C107.2,37.4,106.3,35.7,104.2,35.7z"/>
		<path class="st1" d="M114.5,30.4V27h4.2v3.4H114.5z M114.5,46.2V32.7h4.2v13.5H114.5z"/>
		<path class="st1" d="M128.5,46.5c-4.4,0-7.5-2.8-7.5-7c0-4.5,3.2-7.1,7.5-7.1c4.3,0,7.5,2.6,7.5,7.1
			C136.1,43.7,133,46.5,128.5,46.5z M128.5,35.5c-2.2,0-3.1,1.8-3.1,3.9c0,2.1,0.8,4.1,3.1,4.1c2.4,0,3.2-2,3.2-4.1
			C131.7,37.3,130.7,35.5,128.5,35.5z"/>
		<path class="st1" d="M147.8,46.2v-6.8c0-2.2-0.5-3.6-2.2-3.6c-2.2,0-3,1.9-3,4.3v6.1h-4.2V32.7h3.9V35h0.1c1-1.8,2.7-2.5,4.7-2.5
			c3.5,0,4.9,2.5,4.9,5.4v8.4H147.8z"/>
		<path class="st1" d="M166.1,46.5c-1.8,0-3.4-0.3-5.1-0.8l0.4-3.7c1.2,0.7,2.9,1.2,4.6,1.2c1.5,0,3.1-0.5,3.1-2
			c0-3.4-8.3-1.5-8.3-7.9c0-4.2,3.8-5.6,7.3-5.6c1.7,0,3.2,0.3,4.5,0.7l-0.3,3.4c-1.2-0.5-2.6-0.8-3.9-0.8c-1.2,0-3.1,0.3-3.1,2
			c0,3,8.3,1.3,8.3,7.7C173.7,45.2,170,46.5,166.1,46.5z"/>
		<path class="st1" d="M181.7,46.5c-3.6,0-4.8-1.8-4.8-4.8v-6h-2.6v-3h2.7v-2.9l4.2-1.3v4.2h3.2v3h-3.2v5.5c0,1.4,0.3,2.4,1.8,2.4
			c0.5,0,1.1-0.1,1.5-0.2l0.2,2.9C183.7,46.4,182.9,46.5,181.7,46.5z"/>
		<path class="st1" d="M193,46.5c-4.4,0-7.5-2.8-7.5-7c0-4.5,3.2-7.1,7.5-7.1c4.3,0,7.5,2.6,7.5,7.1C200.5,43.7,197.5,46.5,193,46.5
			z M193,35.5c-2.2,0-3.1,1.8-3.1,3.9c0,2.1,0.8,4.1,3.1,4.1c2.4,0,3.2-2,3.2-4.1C196.2,37.3,195.2,35.5,193,35.5z"/>
		<path class="st1" d="M209.5,46.5c-4.4,0-7.4-2.8-7.4-7.1c0-4.2,2.9-7,7.3-7c1.4,0,2.6,0.2,3.6,0.6l-0.3,3.1
			c-0.8-0.4-1.6-0.6-2.7-0.6c-2.1,0-3.6,1.5-3.6,3.9c0,2.3,1.6,3.9,3.7,3.9c1,0,2.1-0.3,2.8-0.6l0.1,3.2
			C212.1,46.3,210.8,46.5,209.5,46.5z"/>
		<path class="st1" d="M223.5,46.2l-4-6.6h-0.1v6.6h-4.2V26.7h4.2v11.6h0.1l4-5.6h4.7l-4.8,6.1l5.3,7.4H223.5z"/>
		<path class="st1" d="M239.4,46.2v-6.8c0-2.2-0.5-3.6-2.2-3.6c-2.2,0-3,1.9-3,4.3v6.1h-4.2V26.7h4.2v8h0.1c1-1.4,2.4-2.3,4.4-2.3
			c3.5,0,4.9,2.5,4.9,5.4v8.4H239.4z"/>
		<path class="st1" d="M253.2,46.5c-4.4,0-7.5-2.8-7.5-7c0-4.5,3.2-7.1,7.5-7.1c4.3,0,7.5,2.6,7.5,7.1
			C260.8,43.7,257.7,46.5,253.2,46.5z M253.2,35.5c-2.2,0-3.1,1.8-3.1,3.9c0,2.1,0.8,4.1,3.1,4.1c2.4,0,3.2-2,3.2-4.1
			C256.4,37.3,255.4,35.5,253.2,35.5z"/>
		<path class="st1" d="M262.8,46.2V26.7h4.2v19.5H262.8z"/>
		<path class="st1" d="M287.7,46.2v-7.6c0-1.4-0.3-2.8-1.9-2.8c-1.9,0-2.6,1.9-2.6,4.3v6H279v-7.6c0-1.4-0.3-2.8-1.9-2.8
			c-1.9,0-2.6,1.9-2.6,4.3v6h-4.2V32.7h3.9V35h0.1c1-1.8,2.8-2.6,4.5-2.6c1.9,0,3.4,0.8,4.1,2.5c1-1.7,2.7-2.5,4.5-2.5
			c3.7,0,4.6,2.2,4.6,5.6v8.2H287.7z"/>
	</g>
</g>
</svg>
